HIERARCHY
ROOT Hips
{
    OFFSET 0.000000 0.000000 0.000000
    CHANNELS 6 Xposition Yposition Zposition Zrotation Xrotation Yrotation
    JOINT Spine
    {
        OFFSET -0.000000 8.129577 0.000000
        CHANNELS 3 Zrotation Xrotation Yrotation
        JOINT Spine1
        {
            OFFSET -0.000000 26.390701 0.000000
            CHANNELS 3 Zrotation Xrotation Yrotation
            JOINT Neck
            {
                OFFSET -0.000000 26.282320 2.389302
                CHANNELS 3 Zrotation Xrotation Yrotation
                JOINT Head
                {
                    OFFSET -0.000000 13.879765 -1.982823
                    CHANNELS 3 Zrotation Xrotation Yrotation
                    End Site
                    {
                        OFFSET -0.000000 24.785294 0.000000
                    }
                }
            }
            JOINT LeftShoulder
            {
                OFFSET 3.977886 23.574526 -0.273520
                CHANNELS 3 Zrotation Xrotation Yrotation
                JOINT LeftArm
                {
                    OFFSET 13.762619 0.000000 0.000000
                    CHANNELS 3 Zrotation Xrotation Yrotation
                    JOINT LeftForeArm
                    {
                        OFFSET 26.101372 0.000000 0.000000
                        CHANNELS 3 Zrotation Xrotation Yrotation
                        JOINT LeftHand
                        {
                            OFFSET 29.959852 0.000000 0.000000
                            CHANNELS 3 Zrotation Xrotation Yrotation
                            End Site
                            {
                                OFFSET 14.871177 0.000000 0.000000
                            }
                        }
                    }
                }
            }
            JOINT RightShoulder
            {
                OFFSET -3.951699 23.574526 -0.273520
                CHANNELS 3 Zrotation Xrotation Yrotation
                JOINT RightArm
                {
                    OFFSET -13.762619 0.000000 0.000000
                    CHANNELS 3 Zrotation Xrotation Yrotation
                    JOINT RightForeArm
                    {
                        OFFSET -26.101372 0.000000 0.000000
                        CHANNELS 3 Zrotation Xrotation Yrotation
                        JOINT RightHand
                        {
                            OFFSET -29.959852 0.000000 0.000000
                            CHANNELS 3 Zrotation Xrotation Yrotation
                            End Site
                            {
                                OFFSET -14.871177 0.000000 0.000000
                            }
                        }
                    }
                }
            }
        }
    }
    JOINT LeftUpLeg
    {
        OFFSET 9.914117 0.000000 0.000000
        CHANNELS 3 Zrotation Xrotation Yrotation
        JOINT LeftLeg
        {
            OFFSET -0.000000 -41.427933 0.000000
            CHANNELS 3 Zrotation Xrotation Yrotation
            JOINT LeftFoot
            {
                OFFSET -0.000000 -41.025417 0.000000
                CHANNELS 3 Zrotation Xrotation Yrotation
                JOINT LeftToeBase
                {
                    OFFSET -0.000000 -6.444176 14.871177
                    CHANNELS 3 Zrotation Xrotation Yrotation
                    End Site
                    {
                        OFFSET -0.000000 0.000000 3.965647
                    }
                }
            }
        }
    }
    JOINT RightUpLeg
    {
        OFFSET -9.914117 0.000000 0.000000
        CHANNELS 3 Zrotation Xrotation Yrotation
        JOINT RightLeg
        {
            OFFSET -0.000000 -41.427933 0.000000
            CHANNELS 3 Zrotation Xrotation Yrotation
            JOINT RightFoot
            {
                OFFSET -0.000000 -41.025417 0.000000
                CHANNELS 3 Zrotation Xrotation Yrotation
                JOINT RightToeBase
                {
                    OFFSET -0.000000 -6.444176 14.871177
                    CHANNELS 3 Zrotation Xrotation Yrotation
                    End Site
                    {
                        OFFSET -0.000000 0.000000 3.965647
                    }
                }
            }
        }
    }
}
MOTION
Frames:    8
Frame Time:    0.004000
-33.439358    85.319992    -121.615433    0.032654    -0.965180    6.494720    -0.777101    -0.521574    -4.283800    -1.098002    3.084191    -4.250708    1.654109    11.393366    -2.389859    -1.437430    -6.981988    -2.852060    -15.886288    29.329529    6.123832    -25.942024    38.140373    -40.294388    10.359013    -8.338051    -21.537209    7.856103    -6.469231    -1.322422    22.926992    25.522045    -9.321878    38.369690    41.326324    24.639713    -8.604319    -14.093999    20.754103    -1.051761    -12.610745    5.872381    -4.965065    7.918140    -0.640445    1.270219    2.210250    -4.315648    5.908915    -9.269875    5.621845    0.000000    0.000000    0.000000    -1.570724    -22.212896    -2.955606    1.532918    11.639081    2.495926    3.199944    2.476823    -8.650363    0.000000    0.000000    0.000000    
-33.413689    85.276855    -121.271538    0.051155    -0.971033    6.583212    -0.780577    -0.533429    -4.313643    -1.062470    3.110069    -4.281159    1.679639    11.418598    -2.414557    -1.439873    -7.041362    -2.879714    -15.803256    29.264542    6.008678    -25.586885    38.698864    -40.499062    10.675101    -8.714382    -21.500883    7.982779    -6.788352    -1.270347    22.920080    25.537878    -9.341438    38.340092    41.434917    24.686968    -8.631435    -14.170575    20.726334    -1.372614    -12.699444    5.732296    -4.981991    8.130914    -0.544975    1.307296    2.256910    -4.451339    6.025533    -9.437580    5.525126    0.000000    0.000000    0.000000    -1.510951    -22.170965    -2.994625    1.428004    10.737651    2.191149    2.958214    2.955163    -8.479068    0.000000    0.000000    0.000000    
-33.388702    85.233940    -120.925476    0.081842    -0.993816    6.690502    -0.799758    -0.536092    -4.349481    -1.025055    3.156838    -4.317478    1.723740    11.403162    -2.445539    -1.463427    -7.045493    -2.918996    -15.765157    29.246353    5.947231    -25.783302    38.435619    -40.378002    10.608775    -8.526098    -21.642996    7.930528    -6.609457    -1.441793    22.998060    25.670872    -9.369988    38.343227    41.097935    24.727236    -8.453254    -14.158039    20.707058    -1.037104    -12.704124    5.762760    -4.991895    8.381744    -0.537419    1.314197    2.275098    -4.586332    6.014894    -9.633792    5.619074    0.000000    0.000000    0.000000    -1.597822    -22.163528    -2.604535    1.575820    10.066980    2.015828    2.855669    3.221566    -8.798218    0.000000    0.000000    0.000000    
-33.364044    85.191933    -120.571091    0.121480    -1.008293    6.786313    -0.810246    -0.558142    -4.396589    -1.020974    3.218456    -4.363963    1.715550    11.355558    -2.429837    -1.381524    -7.004203    -2.885988    -15.699254    29.220003    5.902689    -25.847866    38.405785    -40.351162    10.569170    -8.570505    -21.800163    8.357028    -6.630107    -1.139418    22.938932    25.558777    -9.360098    38.461544    41.165287    24.689936    -8.472404    -14.061998    20.596619    -0.832080    -12.602842    5.846236    -5.015486    8.625319    -0.479655    1.328709    2.306066    -4.709149    5.991869    -9.820932    5.639590    0.000000    0.000000    0.000000    -1.551459    -22.095654    -2.628920    1.383348    9.181157    1.542865    3.105584    3.594342    -8.516874    0.000000    0.000000    0.000000    
-33.339725    85.144226    -120.222496    0.134244    -1.012708    6.895840    -0.801456    -0.563399    -4.436518    -0.999120    3.216262    -4.404530    1.727431    11.423355    -2.459835    -1.356527    -7.099030    -2.912676    -15.691902    29.273687    5.879985    -25.688517    38.456478    -40.468994    10.739997    -8.594701    -21.818459    8.098072    -6.632671    -1.360729    22.963762    25.606934    -9.346439    38.423649    41.283623    24.694927    -8.439351    -14.250084    20.570276    -0.908082    -12.803651    5.839415    -5.007752    8.848825    -0.489759    1.333629    2.337027    -4.781784    6.003008    -10.040726    5.663213    0.000000    0.000000    0.000000    -1.579067    -22.059958    -2.388257    1.378940    8.425166    1.349568    3.149082    3.882186    -8.646255    0.000000    0.000000    0.000000    
-33.311115    85.096619    -119.873154    0.166065    -1.025170    6.998982    -0.808003    -0.581299    -4.484477    -0.966778    3.268328    -4.452776    1.666694    11.258175    -2.393559    -1.184527    -6.849976    -2.806178    -15.721859    29.277632    5.889657    -25.620697    38.414467    -40.497044    10.780201    -8.623550    -21.961678    8.055124    -6.634800    -1.294218    22.921480    25.573229    -9.315804    38.549332    41.203316    24.620785    -8.393605    -14.175563    20.539406    -0.922084    -12.738849    5.718147    -5.033576    9.067998    -0.457481    1.363987    2.400154    -4.864063    5.993015    -10.260075    5.659392    0.000000    0.000000    0.000000    -1.541963    -22.003819    -2.434054    1.228488    7.682905    1.430628    3.389285    4.158162    -8.947053    0.000000    0.000000    0.000000    
-33.289612    85.047852    -119.528648    0.189791    -1.025967    7.095788    -0.798325    -0.606121    -4.521090    -0.983390    3.302324    -4.488520    1.725937    11.237892    -2.402957    -1.193913    -6.829215    -2.820712    -15.639577    29.283422    5.825315    -25.679836    38.387848    -40.482716    10.846397    -8.627501    -22.021925    8.195747    -6.629552    -1.406406    22.977779    25.592056    -9.342317    38.532658    41.197533    24.637711    -8.341381    -14.258141    20.517292    -0.937370    -12.832981    5.643613    -5.045392    9.273468    -0.402879    1.393029    2.454393    -4.935264    6.096998    -10.430993    5.541924    0.000000    0.000000    0.000000    -1.519335    -21.933252    -2.379181    1.122305    6.858154    0.843711    3.726621    4.571994    -8.643377    0.000000    0.000000    0.000000    
-33.262878    84.999458    -119.160126    0.226860    -1.052966    7.207317    -0.814047    -0.616286    -4.559421    -0.960587    3.346027    -4.526982    1.808725    11.239260    -2.390659    -1.282010    -6.831525    -2.829486    -15.610649    29.304821    5.802307    -25.577374    38.431477    -40.572670    10.959973    -8.655463    -22.112476    8.033706    -6.615876    -1.281851    23.019375    25.654758    -9.358002    38.477036    41.258347    24.670101    -8.368152    -14.353016    20.470032    -0.619041    -12.912817    5.823504    -5.063469    9.524938    -0.357712    1.414355    2.515564    -5.100072    6.069358    -10.652310    5.612215    0.000000    0.000000    0.000000    -1.550582    -21.853565    -2.160773    1.090328    6.129333    0.581750    3.732181    4.813966    -8.747121    0.000000    0.000000    0.000000    
